<?xml version="1.0" encoding="utf-8"?>
<!-- Generator: Adobe Illustrator 21.1.0, SVG Export Plug-In . SVG Version: 6.00 Build 0)  -->
<svg version="1.1" id="Layer_1" xmlns="http://www.w3.org/2000/svg" xmlns:xlink="http://www.w3.org/1999/xlink" x="0px" y="0px"
	 viewBox="0 0 100 100" style="enable-background:new 0 0 100 100;" xml:space="preserve">
<g>
	<g>
		<g>
			<g>
				<path d="M6.8,44.3l86.4,0c3.2,0,5.7,2.6,5.7,5.7s-2.6,5.7-5.7,5.7l-86.4,0C3.6,55.7,1,53.2,1,50C1,46.8,3.6,44.3,6.8,44.3z"/>
				<path d="M6.8,43.2l86.4,0c3.7,0,6.8,3,6.8,6.8s-3,6.8-6.8,6.8l-86.4,0C3,56.8,0,53.7,0,50C0,46.3,3,43.2,6.8,43.2z M93.2,54.7
					c2.6,0,4.7-2.1,4.7-4.7c0-2.6-2.1-4.7-4.7-4.7H6.8c-2.6,0-4.7,2.1-4.7,4.7c0,2.6,2.1,4.7,4.7,4.7H93.2z"/>
			</g>
		</g>
		<g>
			<g>
				<path d="M6.8,44.3c1.5,0,2.9,0.6,4.1,1.7l24.8,24.8c2.2,2.2,2.2,5.9,0,8.1c-2.2,2.2-5.9,2.2-8.1,0L2.7,54.1
					c-2.2-2.2-2.2-5.9,0-8.1C3.8,44.8,5.3,44.3,6.8,44.3z"/>
				<path d="M6.8,43.2c1.8,0,3.5,0.7,4.8,2L36.4,70c2.6,2.6,2.6,6.9,0,9.6c-2.6,2.6-6.9,2.6-9.6,0L2,54.8c-1.3-1.3-2-3-2-4.8
					c0-1.8,0.7-3.5,2-4.8C3.3,43.9,5,43.2,6.8,43.2z M31.6,79.5c1.2,0,2.4-0.5,3.3-1.4c1.8-1.8,1.8-4.8,0-6.6L10.1,46.7
					c-0.9-0.9-2.1-1.4-3.3-1.4c-1.3,0-2.4,0.5-3.3,1.4c-0.9,0.9-1.4,2.1-1.4,3.3c0,1.3,0.5,2.4,1.4,3.3l24.8,24.8
					C29.2,79.1,30.4,79.5,31.6,79.5z"/>
			</g>
		</g>
		<g>
			<g>
				<path d="M31.6,19.4c1.5,0,2.9,0.6,4.1,1.7c2.2,2.2,2.2,5.9,0,8.1L10.8,54.1c-2.2,2.2-5.9,2.2-8.1,0s-2.2-5.9,0-8.1l24.8-24.8
					C28.7,20,30.1,19.4,31.6,19.4z"/>
				<path d="M31.6,18.4c1.8,0,3.5,0.7,4.8,2c2.6,2.6,2.6,6.9,0,9.6L11.6,54.8c-1.3,1.3-3,2-4.8,2s-3.5-0.7-4.8-2c-1.3-1.3-2-3-2-4.8
					c0-1.8,0.7-3.5,2-4.8l24.8-24.8C28.1,19.1,29.8,18.4,31.6,18.4z M6.8,54.7c1.3,0,2.4-0.5,3.3-1.4l24.8-24.8
					c0.9-0.9,1.4-2.1,1.4-3.3c0-1.3-0.5-2.4-1.4-3.3c-0.9-0.9-2.1-1.4-3.3-1.4c-1.3,0-2.4,0.5-3.3,1.4L3.5,46.7
					c-0.9,0.9-1.4,2.1-1.4,3.3c0,1.3,0.5,2.4,1.4,3.3C4.4,54.2,5.5,54.7,6.8,54.7z"/>
			</g>
		</g>
	</g>
</g>
</svg>
