<?xml version="1.0" encoding="utf-8"?>
<!-- Generator: Adobe Illustrator 23.0.2, SVG Export Plug-In . SVG Version: 6.00 Build 0)  -->
<svg version="1.1" id="katman_1" xmlns="http://www.w3.org/2000/svg" xmlns:xlink="http://www.w3.org/1999/xlink" x="0px" y="0px"
	 viewBox="0 0 100 100" style="enable-background:new 0 0 100 100;" xml:space="preserve">
<g>
	<g>
		<path d="M50,75.22c-13.9,0-25.21-11.31-25.21-25.21S36.09,24.8,50,24.8c13.9,0,25.21,11.3,25.21,25.21
			C75.21,63.9,63.9,75.22,50,75.22z M50,33.21c-9.26,0-16.8,7.54-16.8,16.8S40.74,66.8,50,66.8s16.8-7.54,16.8-16.8
			S59.26,33.21,50,33.21z"/>
	</g>
	<g>
		<path d="M50,18.33c-3.01,0-5.45-2.44-5.45-5.45V5.45C44.55,2.44,46.99,0,50,0s5.45,2.44,5.45,5.45v7.43
			C55.45,15.89,53.01,18.33,50,18.33z"/>
	</g>
	<g>
		<path d="M23.75,29.21c-1.39,0-2.79-0.53-3.86-1.59l-5.24-5.24c-2.12-2.12-2.12-5.58,0-7.7s5.58-2.12,7.7,0l5.24,5.24
			c2.12,2.12,2.12,5.58,0,7.7C26.54,28.67,25.14,29.21,23.75,29.21z"/>
	</g>
	<g>
		<path d="M12.88,55.46H5.46c-3.01,0-5.45-2.44-5.45-5.45s2.44-5.45,5.45-5.45h7.43c3.01,0,5.45,2.44,5.45,5.45
			S15.88,55.46,12.88,55.46z"/>
	</g>
	<g>
		<path d="M18.51,86.95c-1.39,0-2.79-0.53-3.86-1.59c-2.12-2.12-2.12-5.58,0-7.7l5.24-5.24c2.12-2.12,5.58-2.12,7.7,0
			c2.12,2.12,2.12,5.58,0,7.7l-5.24,5.24C21.28,86.42,19.9,86.95,18.51,86.95z"/>
	</g>
	<g>
		<path d="M50,100c-3.01,0-5.45-2.44-5.45-5.45v-7.43c0-3.01,2.44-5.45,5.45-5.45s5.45,2.44,5.45,5.45v7.43
			C55.45,97.56,53.01,100,50,100z"/>
	</g>
	<g>
		<path d="M81.49,86.95c-1.39,0-2.79-0.53-3.86-1.59l-5.24-5.24c-2.12-2.12-2.12-5.58,0-7.7c2.12-2.12,5.58-2.12,7.7,0l5.24,5.24
			c2.12,2.12,2.12,5.58,0,7.7C84.28,86.42,82.89,86.95,81.49,86.95z"/>
	</g>
	<g>
		<path d="M94.54,55.46h-7.43c-3.01,0-5.45-2.44-5.45-5.45s2.44-5.45,5.45-5.45h7.43c3.01,0,5.45,2.44,5.45,5.45
			S97.55,55.46,94.54,55.46z"/>
	</g>
	<g>
		<path d="M76.25,29.21c-1.39,0-2.79-0.53-3.86-1.59c-2.12-2.12-2.12-5.58,0-7.7l5.24-5.24c2.12-2.12,5.58-2.12,7.7,0
			c2.12,2.12,2.12,5.58,0,7.7l-5.24,5.24C79.04,28.67,77.63,29.21,76.25,29.21z"/>
	</g>
</g>
</svg>
