<?xml version="1.0" encoding="utf-8"?>
<!-- Generator: Adobe Illustrator 23.0.2, SVG Export Plug-In . SVG Version: 6.00 Build 0)  -->
<svg version="1.1" id="katman_1" xmlns="http://www.w3.org/2000/svg" xmlns:xlink="http://www.w3.org/1999/xlink" x="0px" y="0px"
	 viewBox="0 0 100 100" style="enable-background:new 0 0 100 100;" xml:space="preserve">
<g>
	<g>
		<g>
			<path d="M54.75,78.66H15.83c-7.92,0-14.37-6.44-14.37-14.36s6.45-14.37,14.37-14.37c3.19,0,6.22,1.03,8.76,2.98
				c3.56,2.74,5.61,6.89,5.61,11.39c0,1.5-1.21,2.72-2.72,2.72s-2.72-1.21-2.72-2.72c0-2.8-1.27-5.38-3.49-7.08
				c-1.57-1.21-3.46-1.85-5.44-1.85c-4.92,0-8.93,4.01-8.93,8.93s4.01,8.93,8.93,8.93h38.93c3.39,0,6.52-1.63,8.38-4.36
				c2.5-3.66,3.71-7.95,3.53-12.41c-0.21-5.25-2.43-10.17-6.24-13.88c-3.81-3.7-8.81-5.78-14.06-5.83
				c-7.64-0.09-14.35,3.96-16.32,9.86c-0.48,1.43-2.01,2.19-3.44,1.72c-1.43-0.48-2.19-2.01-1.72-3.44
				c2.71-8.12,11.54-13.7,21.54-13.58c6.65,0.08,12.96,2.7,17.78,7.37c4.82,4.68,7.61,10.91,7.88,17.56
				c0.22,5.63-1.32,11.06-4.47,15.69C64.75,76.14,59.94,78.66,54.75,78.66z"/>
			<path d="M54.75,80.11H15.83C7.1,80.11,0,73.02,0,64.3s7.1-15.81,15.82-15.81c3.51,0,6.85,1.14,9.64,3.28
				c3.92,3.02,6.17,7.59,6.17,12.54c0,2.3-1.87,4.17-4.17,4.17s-4.17-1.87-4.17-4.17c0-2.34-1.07-4.49-2.92-5.92
				c-1.32-1.01-2.89-1.54-4.55-1.54c-4.12,0-7.48,3.35-7.48,7.48c0,4.13,3.35,7.48,7.48,7.48h38.93c2.9,0,5.58-1.39,7.17-3.73
				c2.31-3.4,3.45-7.39,3.28-11.53c-0.19-4.87-2.26-9.46-5.8-12.89c-3.54-3.44-8.18-5.37-13.06-5.43
				c-7.03-0.1-13.14,3.56-14.91,8.86c-0.73,2.18-3.1,3.36-5.28,2.64c-2.18-0.73-3.37-3.1-2.64-5.28
				c2.86-8.63,12.14-14.59,22.6-14.59c0.11,0,0.21,0,0.32,0c7.03,0.09,13.7,2.85,18.78,7.79c5.09,4.93,8.04,11.52,8.33,18.54
				c0.24,5.94-1.39,11.67-4.72,16.56C65.69,77.36,60.43,80.11,54.75,80.11z M15.83,51.39c-7.12,0-12.91,5.79-12.91,12.9
				c0,7.12,5.79,12.9,12.91,12.9h38.93c4.71,0,9.07-2.28,11.67-6.11c2.97-4.37,4.44-9.49,4.21-14.8c-0.25-6.27-2.9-12.15-7.45-16.57
				c-4.54-4.41-10.5-6.88-16.79-6.96c-9.38-0.09-17.63,5.07-20.13,12.58c-0.22,0.66,0.14,1.38,0.8,1.59s1.38-0.14,1.59-0.8
				c2.14-6.42,9.29-10.86,17.46-10.86c0.09,0,0.17,0,0.26,0c5.63,0.07,10.98,2.29,15.06,6.25s6.46,9.24,6.68,14.86
				c0.19,4.78-1.12,9.37-3.79,13.29c-2.13,3.14-5.71,5-9.58,5H15.83c-5.73,0-10.39-4.66-10.39-10.39c0-5.73,4.66-10.39,10.39-10.39
				c2.31,0,4.49,0.75,6.33,2.16c2.58,1.98,4.06,4.98,4.06,8.23c0,0.7,0.56,1.26,1.26,1.26s1.26-0.56,1.26-1.26
				c0-4.04-1.83-7.77-5.04-10.23C21.41,52.31,18.69,51.39,15.83,51.39z"/>
		</g>
	</g>
	<g>
		<g>
			<path d="M92.69,30.92c-5.2-6.36-13.18-9.93-21.34-9.55c-7.22,0.33-15.64,4.05-19.21,11.59c1.6,0.99,3.16,1.99,4.54,3.17
				c1.75-4.47,6.92-8.97,14.92-9.34c6.45-0.3,12.76,2.53,16.88,7.57c4.42,5.39,5.8,12.84,3.61,19.46
				c-1.16,3.52-4.19,9.43-11.35,9.45c-2.18,0-4.37,0-6.55,0h-5.08c-1.5,0-2.72,1.21-2.72,2.72c0,1.5,1.21,2.72,2.72,2.72h5.08
				c1.1,0,2.18,0,3.28,0s2.19,0,3.29,0c7.72-0.02,13.73-4.82,16.49-13.17C100.02,47.16,98.27,37.74,92.69,30.92z"/>
			<path d="M77.46,70.15h-8.36c-2.3,0-4.17-1.87-4.17-4.17c0-2.3,1.87-4.17,4.17-4.17h5.08c2.18,0,4.37,0,6.55,0
				c5.93-0.01,8.7-4.6,9.97-8.45c2.03-6.14,0.75-13.06-3.35-18.08c-3.83-4.69-9.7-7.3-15.69-7.04c-7.78,0.36-12.2,4.76-13.63,8.42
				l-0.75,1.9l-1.55-1.33c-1.25-1.07-2.65-1.99-4.37-3.05l-1.11-0.69l0.56-1.17c4.11-8.66,13.59-12.11,20.46-12.43
				c8.63-0.39,17.04,3.38,22.53,10.09l0,0c5.89,7.2,7.74,17.15,4.82,25.99c-2.98,8.98-9.49,14.14-17.87,14.16L77.46,70.15z
				 M69.11,64.72c-0.7,0-1.26,0.56-1.26,1.26s0.56,1.26,1.26,1.26h8.36h3.28c7.05-0.02,12.56-4.46,15.12-12.17
				c2.61-7.88,0.96-16.79-4.31-23.22l0,0c-4.91-6-12.45-9.37-20.14-9.03c-5.75,0.26-13.54,2.96-17.37,9.62
				c0.76,0.49,1.45,0.95,2.12,1.44c2.32-4.02,7.37-8.16,15.37-8.53c6.9-0.32,13.66,2.7,18.08,8.1c4.73,5.78,6.2,13.76,3.86,20.83
				c-1.29,3.89-4.66,10.43-12.73,10.45c-2.18,0-4.37,0-6.55,0H69.11z"/>
		</g>
	</g>
</g>
</svg>
