<?xml version="1.0" encoding="utf-8"?>
<!-- Generator: Adobe Illustrator 23.0.2, SVG Export Plug-In . SVG Version: 6.00 Build 0)  -->
<svg version="1.1" id="katman_1" xmlns="http://www.w3.org/2000/svg" xmlns:xlink="http://www.w3.org/1999/xlink" x="0px" y="0px"
	 viewBox="0 0 100 100" style="enable-background:new 0 0 100 100;" xml:space="preserve">
<g>
	<g>
		<g>
			<path d="M75.17,66.17H20.63c-10.68,0-19.36-8.69-19.36-19.36s8.69-19.36,19.36-19.36c4.31,0,8.39,1.39,11.8,4.01
				c4.81,3.69,7.56,9.29,7.56,15.35c0,1.68-1.36,3.05-3.05,3.05s-3.05-1.36-3.05-3.05c0-4.15-1.89-7.99-5.18-10.52
				c-2.34-1.8-5.13-2.75-8.09-2.75c-7.32,0-13.27,5.95-13.27,13.27s5.95,13.27,13.27,13.27h54.54c5,0,9.62-2.41,12.37-6.45
				c3.58-5.26,5.34-11.43,5.08-17.84c-0.31-7.55-3.49-14.64-8.97-19.96c-5.48-5.32-12.66-8.3-20.22-8.39
				C52.4,7.31,42.69,13.19,39.83,21.77c-0.53,1.6-2.26,2.46-3.85,1.93c-1.6-0.53-2.46-2.26-1.93-3.85
				C37.74,8.78,49.87,1.17,63.5,1.34c9.12,0.11,17.78,3.7,24.39,10.11c6.6,6.41,10.45,14.97,10.82,24.08
				c0.31,7.72-1.81,15.16-6.13,21.52C88.69,62.76,82.19,66.17,75.17,66.17z"/>
			<path d="M75.17,67.44H20.63C9.25,67.44,0,58.18,0,46.81s9.25-20.63,20.63-20.63c4.59,0,8.94,1.48,12.57,4.28
				c5.12,3.94,8.06,9.9,8.06,16.35c0,2.38-1.94,4.31-4.31,4.31s-4.31-1.94-4.31-4.31c0-3.76-1.71-7.22-4.69-9.51
				c-2.11-1.63-4.64-2.49-7.31-2.49c-6.62,0-12,5.38-12,12s5.38,12,12,12h54.54c4.58,0,8.81-2.2,11.32-5.89
				c3.43-5.04,5.11-10.94,4.86-17.08c-0.29-7.22-3.34-14.01-8.59-19.1c-5.24-5.09-12.12-7.95-19.35-8.03
				c-10.48-0.12-19.69,5.42-22.37,13.47c-0.75,2.26-3.2,3.48-5.46,2.73c-1.09-0.36-1.98-1.13-2.5-2.16c-0.52-1.03-0.6-2.2-0.23-3.29
				C36.71,7.86,49.32-0.1,63.51,0.08c9.45,0.11,18.42,3.83,25.25,10.47c6.84,6.64,10.82,15.5,11.2,24.94
				c0.32,8-1.87,15.7-6.35,22.28C89.5,63.82,82.61,67.44,75.17,67.44z M20.63,28.71c-9.98,0-18.09,8.12-18.09,18.09
				S10.65,64.9,20.63,64.9h54.54c6.6,0,12.71-3.2,16.35-8.56c4.17-6.13,6.21-13.3,5.91-20.75C97.08,26.8,93.37,18.55,87,12.37
				c-6.37-6.18-14.72-9.65-23.52-9.75C50.37,2.44,38.78,9.7,35.26,20.25c-0.15,0.45-0.12,0.93,0.1,1.36
				c0.21,0.42,0.58,0.74,1.03,0.89c0.93,0.31,1.94-0.19,2.25-1.12c3-8.99,13.02-15.21,24.45-15.21c0.12,0,0.24,0,0.36,0
				c7.89,0.1,15.37,3.2,21.09,8.75c5.71,5.55,9.04,12.94,9.36,20.82c0.27,6.68-1.56,13.12-5.3,18.61c-2.98,4.38-8,7-13.41,7H20.63
				c-8.02,0-14.54-6.52-14.54-14.54s6.52-14.54,14.54-14.54c3.23,0,6.3,1.04,8.86,3.01c3.61,2.77,5.68,6.98,5.68,11.53
				c0,0.98,0.8,1.78,1.78,1.78s1.78-0.8,1.78-1.78c0-5.66-2.58-10.89-7.07-14.34C28.47,30.01,24.65,28.71,20.63,28.71z"/>
		</g>
	</g>
	<g>
		<g>
			<path d="M88.07,83.68c-0.24,0-0.49-0.03-0.74-0.09l-7.5-1.87c-1.22-0.31-2.5-0.58-3.8-0.81c-0.04-0.01-0.07-0.01-0.11-0.02
				C67.7,79.39,59,79.67,50.8,81.72c-10.45,2.61-21.53,2.61-31.98,0l-7.51-1.87c-1.63-0.41-2.62-2.06-2.22-3.69
				c0.41-1.63,2.06-2.63,3.69-2.22l7.5,1.87c9.49,2.36,19.54,2.37,29.03,0c9.01-2.25,18.55-2.56,27.6-0.93
				c0.03,0,0.06,0.01,0.09,0.01c1.47,0.26,2.92,0.57,4.3,0.92l7.5,1.87c1.63,0.41,2.62,2.06,2.22,3.69
				C90.68,82.76,89.44,83.68,88.07,83.68z"/>
			<path d="M88.07,84.95c-0.35,0-0.7-0.04-1.05-0.13l-7.5-1.87c-1.2-0.3-2.45-0.57-3.72-0.8c-0.01,0-0.06-0.01-0.11-0.02
				c-8.07-1.47-16.57-1.18-24.59,0.81c-10.66,2.66-21.93,2.66-32.59,0L11,81.08c-1.12-0.28-2.06-0.98-2.65-1.97
				c-0.59-0.99-0.77-2.15-0.49-3.27c0.28-1.12,0.98-2.06,1.96-2.65c0.99-0.59,2.15-0.77,3.27-0.49l7.5,1.87
				c9.3,2.32,19.12,2.32,28.42,0c9.17-2.29,18.89-2.61,28.13-0.95l0.08,0.01c1.51,0.27,2.98,0.58,4.39,0.94l7.5,1.87
				c1.12,0.28,2.06,0.98,2.65,1.97c0.59,0.99,0.77,2.15,0.49,3.27C91.78,83.61,90.06,84.95,88.07,84.95z M65.34,78.67
				c3.63,0,7.26,0.32,10.81,0.97l0.06,0.01c1.37,0.24,2.67,0.52,3.93,0.84l7.5,1.87c0.14,0.04,0.29,0.05,0.43,0.05
				c0.82,0,1.52-0.55,1.72-1.35c0.12-0.46,0.04-0.94-0.2-1.34c-0.24-0.41-0.63-0.69-1.09-0.81L81,77.04
				c-1.35-0.34-2.77-0.64-4.21-0.9l-0.05-0.01c-8.93-1.61-18.29-1.29-27.11,0.91c-9.7,2.42-19.95,2.42-29.65,0l-7.51-1.87
				c-0.46-0.12-0.94-0.04-1.34,0.2c-0.41,0.24-0.69,0.63-0.81,1.09c-0.12,0.46-0.04,0.94,0.2,1.34c0.24,0.41,0.63,0.69,1.09,0.81
				l7.51,1.87c10.26,2.56,21.11,2.56,31.37,0C55.33,79.28,60.35,78.67,65.34,78.67z"/>
		</g>
	</g>
	<g>
		<g>
			<path d="M88.07,98.66c-0.24,0-0.49-0.03-0.74-0.09l-7.5-1.87c-1.22-0.31-2.5-0.58-3.8-0.81c-0.04-0.01-0.07-0.01-0.11-0.02
				C67.7,94.37,59,94.65,50.8,96.69c-10.45,2.61-21.53,2.61-31.98,0l-7.51-1.87c-1.63-0.41-2.62-2.06-2.22-3.69
				c0.41-1.63,2.06-2.63,3.69-2.22l7.5,1.87c9.49,2.37,19.54,2.36,29.03,0c9.01-2.25,18.55-2.56,27.6-0.93
				c0.03,0,0.06,0.01,0.09,0.01c1.47,0.26,2.92,0.57,4.3,0.92l7.5,1.87c1.63,0.41,2.62,2.06,2.22,3.69
				C90.68,97.73,89.44,98.66,88.07,98.66z"/>
			<path d="M88.07,99.93c-0.35,0-0.7-0.04-1.05-0.13l-7.5-1.87c-1.2-0.3-2.45-0.57-3.72-0.8c-0.01,0-0.06-0.01-0.11-0.02
				c-8.07-1.47-16.57-1.18-24.59,0.81c-10.66,2.66-21.93,2.66-32.59,0L11,96.05c-1.12-0.28-2.06-0.98-2.65-1.97
				c-0.59-0.99-0.77-2.15-0.49-3.27c0.28-1.12,0.98-2.06,1.96-2.65c0.99-0.59,2.15-0.77,3.27-0.49l7.5,1.87
				c9.29,2.32,19.12,2.32,28.42,0c9.17-2.29,18.89-2.61,28.13-0.95l0.08,0.01c1.51,0.27,2.98,0.58,4.39,0.94l7.5,1.87
				c1.12,0.28,2.06,0.98,2.65,1.97c0.59,0.99,0.77,2.15,0.49,3.27C91.78,98.58,90.06,99.93,88.07,99.93z M65.34,93.65
				c3.63,0,7.26,0.32,10.81,0.97l0.06,0.01c1.37,0.24,2.67,0.52,3.93,0.84l7.5,1.87c0.14,0.04,0.29,0.05,0.43,0.05
				c0.82,0,1.52-0.55,1.72-1.35c0.12-0.46,0.04-0.94-0.2-1.34c-0.24-0.41-0.63-0.69-1.09-0.81L81,92.02
				c-1.35-0.34-2.77-0.64-4.21-0.9l-0.05-0.01c-8.93-1.61-18.29-1.29-27.11,0.91c-9.7,2.42-19.95,2.42-29.65,0l-7.5-1.87
				c-0.46-0.12-0.94-0.04-1.34,0.2c-0.41,0.24-0.69,0.63-0.81,1.09c-0.12,0.46-0.04,0.94,0.2,1.34c0.24,0.41,0.63,0.69,1.09,0.81
				l7.51,1.87c10.26,2.56,21.11,2.56,31.37,0C55.33,94.25,60.35,93.65,65.34,93.65z"/>
		</g>
	</g>
</g>
</svg>
