<?xml version="1.0" encoding="utf-8"?>
<!-- Generator: Adobe Illustrator 23.0.2, SVG Export Plug-In . SVG Version: 6.00 Build 0)  -->
<svg version="1.1" id="katman_1" xmlns="http://www.w3.org/2000/svg" xmlns:xlink="http://www.w3.org/1999/xlink" x="0px" y="0px"
	 viewBox="0 0 100 100" style="enable-background:new 0 0 100 100;" xml:space="preserve">
<g>
	<g>
		<path d="M74.37,64.74H22.88c-10.6,0-19.24-8.62-19.24-19.24s8.62-19.24,19.24-19.24c4.27,0,8.33,1.37,11.73,3.98
			c4.78,3.69,7.51,9.24,7.51,15.26c0,2.11-1.71,3.83-3.83,3.83c-2.11,0-3.83-1.71-3.83-3.83c0-3.63-1.65-6.96-4.52-9.16
			c-2.04-1.57-4.47-2.39-7.05-2.39c-6.37,0-11.57,5.18-11.57,11.57s5.18,11.57,11.57,11.57h51.47c4.4,0,8.47-2.11,10.88-5.66
			c3.27-4.8,4.86-10.43,4.63-16.26c-0.28-6.88-3.18-13.35-8.18-18.19c-5-4.84-11.54-7.56-18.42-7.65
			c-10-0.12-18.78,5.17-21.34,12.88c-0.66,2.01-2.84,3.1-4.84,2.42c-2.01-0.66-3.1-2.84-2.42-4.84C38.23,9.06,49.83,1.65,62.95,1.65
			c0.14,0,0.29,0,0.43,0c8.86,0.11,17.26,3.59,23.67,9.81C93.47,17.68,97.18,26,97.56,34.84c0.31,7.5-1.76,14.72-5.96,20.89
			C87.74,61.36,81.31,64.74,74.37,64.74z"/>
	</g>
	<g>
		<path d="M2.71,88.63c-0.57,0-1.16-0.12-1.71-0.4c-1.9-0.94-2.65-3.26-1.71-5.14l4.86-9.72c0.94-1.9,3.26-2.65,5.14-1.71
			c1.9,0.94,2.65,3.26,1.71,5.14l-4.86,9.72C5.48,87.85,4.12,88.63,2.71,88.63z"/>
	</g>
	<g>
		<path d="M19.62,98.35c-0.57,0-1.16-0.12-1.71-0.4c-1.9-0.94-2.65-3.26-1.71-5.14l9.72-19.44c0.94-1.9,3.26-2.65,5.14-1.71
			c1.9,0.94,2.65,3.26,1.71,5.14l-9.72,19.44C22.39,97.57,21.03,98.35,19.62,98.35z"/>
	</g>
	<g>
		<path d="M46.45,88.63c-0.57,0-1.16-0.12-1.71-0.4c-1.9-0.94-2.65-3.26-1.71-5.14l4.86-9.72c0.94-1.9,3.26-2.65,5.14-1.71
			c1.9,0.94,2.65,3.26,1.71,5.14l-4.86,9.72C49.22,87.85,47.86,88.63,46.45,88.63z"/>
	</g>
	<g>
		<path d="M90.2,88.63c-0.57,0-1.16-0.12-1.71-0.4c-1.9-0.94-2.65-3.26-1.71-5.14l4.86-9.72c0.94-1.9,3.26-2.67,5.14-1.71
			c1.9,0.94,2.65,3.26,1.71,5.14l-4.86,9.72C92.94,87.85,91.6,88.63,90.2,88.63z"/>
	</g>
	<g>
		<path d="M63.36,98.35c-0.57,0-1.16-0.12-1.71-0.4c-1.9-0.94-2.65-3.26-1.71-5.14l9.72-19.44c0.94-1.9,3.26-2.65,5.14-1.71
			c1.9,0.94,2.65,3.26,1.71,5.14l-9.72,19.44C66.13,97.57,64.77,98.35,63.36,98.35z"/>
	</g>
</g>
</svg>
