<?xml version="1.0" encoding="utf-8"?>
<!-- Generator: Adobe Illustrator 23.0.2, SVG Export Plug-In . SVG Version: 6.00 Build 0)  -->
<svg version="1.1" id="katman_1" xmlns="http://www.w3.org/2000/svg" xmlns:xlink="http://www.w3.org/1999/xlink" x="0px" y="0px"
	 viewBox="0 0 100 100" style="enable-background:new 0 0 100 100;" xml:space="preserve">
<g>
	<g>
		<path d="M72.7,60.92H23.36c-10.29,0-18.66-8.37-18.66-18.66S13.07,23.6,23.36,23.6c4.15,0,8.09,1.33,11.37,3.87
			c4.63,3.56,7.29,8.96,7.29,14.8c0,2.16-1.74,3.9-3.9,3.9c-2.16,0-3.9-1.74-3.9-3.9c0-3.4-1.55-6.54-4.24-8.61
			c-1.91-1.48-4.2-2.25-6.61-2.25c-5.99,0-10.85,4.86-10.85,10.85s4.86,10.85,10.85,10.85H72.7c4.14,0,7.97-2,10.23-5.32
			c3.11-4.55,4.63-9.89,4.39-15.45c-0.27-6.54-3.03-12.67-7.76-17.29c-4.75-4.61-10.96-7.19-17.51-7.26
			c-9.48-0.1-17.8,4.89-20.24,12.18c-0.68,2.04-2.88,3.15-4.94,2.47c-2.04-0.68-3.15-2.9-2.47-4.94C37.87,7.16,49.06,0,61.73,0
			c0.13,0,0.28,0,0.41,0c8.55,0.1,16.66,3.47,22.84,9.48c6.18,6,9.79,14.02,10.13,22.56c0.3,7.23-1.69,14.21-5.74,20.15
			C85.67,57.65,79.43,60.92,72.7,60.92z"/>
	</g>
	<g>
		<g>
			<path d="M89.43,83.93c-1.14,0-2.07-0.93-2.07-2.07V68.71c0-1.14,0.93-2.07,2.07-2.07c1.14,0,2.07,0.93,2.07,2.07v13.15
				C91.5,83.01,90.57,83.93,89.43,83.93z"/>
		</g>
		<g>
			<path d="M95.12,80.64c-0.35,0-0.71-0.09-1.04-0.28L82.7,73.8c-0.99-0.58-1.33-1.83-0.75-2.82c0.58-0.99,1.83-1.33,2.82-0.75
				l11.39,6.57c0.99,0.58,1.33,1.83,0.75,2.82C96.53,80.28,95.83,80.64,95.12,80.64z"/>
		</g>
		<g>
			<path d="M83.74,80.64c-0.71,0-1.4-0.37-1.79-1.04c-0.58-0.99-0.24-2.25,0.75-2.82l11.39-6.57c0.99-0.58,2.25-0.24,2.82,0.75
				c0.58,0.99,0.24,2.25-0.75,2.82l-11.39,6.57C84.44,80.56,84.09,80.64,83.74,80.64z"/>
		</g>
	</g>
	<g>
		<g>
			<path d="M69.72,100c-1.14,0-2.07-0.93-2.07-2.07V84.78c0-1.14,0.93-2.07,2.07-2.07s2.07,0.93,2.07,2.07v13.15
				C71.79,99.07,70.86,100,69.72,100z"/>
		</g>
		<g>
			<path d="M75.41,96.72c-0.35,0-0.71-0.09-1.04-0.28l-11.39-6.57c-0.99-0.58-1.33-1.83-0.75-2.82c0.58-0.99,1.83-1.33,2.82-0.75
				l11.39,6.57c0.99,0.58,1.33,1.83,0.75,2.82C76.82,96.33,76.12,96.72,75.41,96.72z"/>
		</g>
		<g>
			<path d="M64.02,96.72c-0.71,0-1.4-0.37-1.79-1.04c-0.58-0.99-0.24-2.25,0.75-2.82l11.39-6.57c0.99-0.58,2.25-0.24,2.82,0.75
				c0.58,0.99,0.24,2.25-0.75,2.82l-11.39,6.57C64.73,96.61,64.38,96.72,64.02,96.72z"/>
		</g>
	</g>
	<g>
		<g>
			<path d="M30.3,100c-1.14,0-2.07-0.93-2.07-2.07V84.78c0-1.14,0.93-2.07,2.07-2.07s2.07,0.93,2.07,2.07v13.15
				C32.35,99.07,31.44,100,30.3,100z"/>
		</g>
		<g>
			<path d="M35.98,96.72c-0.35,0-0.71-0.09-1.04-0.28l-11.39-6.57c-0.99-0.58-1.33-1.83-0.75-2.82c0.58-0.99,1.83-1.33,2.82-0.75
				l11.39,6.57c0.99,0.58,1.33,1.83,0.75,2.82C37.39,96.33,36.7,96.72,35.98,96.72z"/>
		</g>
		<g>
			<path d="M24.6,96.72c-0.71,0-1.4-0.37-1.79-1.04c-0.58-0.99-0.24-2.25,0.75-2.82l11.39-6.57c0.99-0.58,2.25-0.24,2.82,0.75
				c0.58,0.99,0.24,2.25-0.75,2.82l-11.39,6.57C25.31,96.61,24.96,96.72,24.6,96.72z"/>
		</g>
	</g>
	<g>
		<g>
			<path d="M10.57,83.93c-1.14,0-2.07-0.93-2.07-2.07V68.71c0-1.14,0.93-2.07,2.07-2.07s2.07,0.93,2.07,2.07v13.15
				C12.64,83.01,11.73,83.93,10.57,83.93z"/>
		</g>
		<g>
			<path d="M16.26,80.64c-0.35,0-0.71-0.09-1.04-0.28L3.84,73.8c-0.99-0.58-1.33-1.83-0.75-2.82c0.58-0.99,1.83-1.33,2.82-0.75
				l11.39,6.57c0.99,0.58,1.33,1.83,0.75,2.82C17.67,80.28,16.97,80.64,16.26,80.64z"/>
		</g>
		<g>
			<path d="M4.89,80.64c-0.71,0-1.4-0.37-1.79-1.04c-0.58-0.99-0.24-2.25,0.75-2.82l11.39-6.57c0.99-0.58,2.25-0.24,2.82,0.75
				c0.58,0.99,0.24,2.25-0.75,2.82L5.93,80.36C5.59,80.56,5.23,80.64,4.89,80.64z"/>
		</g>
	</g>
	<g>
		<g>
			<path d="M50.01,83.93c-1.14,0-2.07-0.93-2.07-2.07V68.71c0-1.14,0.93-2.07,2.07-2.07c1.14,0,2.07,0.93,2.07,2.07v13.15
				C52.06,83.01,51.15,83.93,50.01,83.93z"/>
		</g>
		<g>
			<path d="M55.69,80.64c-0.35,0-0.71-0.09-1.04-0.28L43.26,73.8c-0.99-0.58-1.33-1.83-0.75-2.82c0.58-0.99,1.83-1.33,2.82-0.75
				l11.39,6.57c0.99,0.58,1.33,1.83,0.75,2.82C57.1,80.28,56.41,80.64,55.69,80.64z"/>
		</g>
		<g>
			<path d="M44.31,80.64c-0.71,0-1.4-0.37-1.79-1.04c-0.58-0.99-0.24-2.25,0.75-2.82l11.39-6.57c0.99-0.58,2.25-0.24,2.82,0.75
				c0.58,0.99,0.24,2.25-0.75,2.82l-11.39,6.57C45.02,80.56,44.67,80.64,44.31,80.64z"/>
		</g>
	</g>
</g>
</svg>
